<svg width="99" height="99" viewBox="0 0 99 99" fill="none" xmlns="http://www.w3.org/2000/svg">
<style>
    path { fill: #24292f; }
    @media (prefers-color-scheme: dark) {
      path { fill: #ffffff; }
    }
  </style>
<path fill-rule="evenodd" clip-rule="evenodd" d="M28.9512 0.587995C23.7376 0.833975 20.1772 1.66599 17.0648 2.88903C13.8435 4.14441 11.1132 5.82903 8.39665 8.55539C5.68009 11.2818 4.00723 14.014 2.76067 17.2402C1.55429 20.3595 0.736974 23.9228 0.506674 29.1393C0.276374 34.3559 0.225414 36.0326 0.250894 49.3391C0.276374 62.6455 0.335174 64.3135 0.588014 69.5408C0.836934 74.7534 1.66601 78.3128 2.88905 81.4262C4.14639 84.6475 5.82905 87.3768 8.55639 90.0943C11.2837 92.8119 14.014 94.4808 17.248 95.7293C20.3644 96.9338 23.9287 97.755 29.1442 97.9833C34.3598 98.2117 36.0385 98.2646 49.3411 98.2391C62.6436 98.2136 64.3184 98.1548 69.5447 97.9069C74.7711 97.659 78.3118 96.824 81.4263 95.6068C84.6475 94.3466 87.3788 92.6668 90.0944 89.9385C92.8099 87.2102 94.4818 84.476 95.7274 81.2479C96.9347 78.1315 97.755 74.5672 97.9814 69.3556C98.2097 64.1253 98.2636 62.4554 98.2381 49.1509C98.2127 35.8464 98.1529 34.1785 97.905 28.9531C97.657 23.7278 96.8269 20.1792 95.6049 17.0638C94.3456 13.8425 92.6649 11.1152 89.9385 8.39565C87.2122 5.67615 84.476 4.00525 81.2489 2.76261C78.1305 1.55623 74.5682 0.734015 69.3526 0.508615C64.1371 0.283215 62.4584 0.225395 49.1509 0.250875C35.8435 0.276355 34.1775 0.333195 28.9512 0.587995ZM29.5235 89.1682C24.746 88.9605 22.1519 88.1667 20.4232 87.5022C18.1339 86.6202 16.5032 85.554 14.7804 83.8478C13.0575 82.1416 11.9991 80.505 11.1054 78.2207C10.4341 76.4919 9.62557 73.9008 9.40213 69.1233C9.15909 63.9597 9.10813 62.4093 9.07971 49.3273C9.05129 36.2453 9.10127 34.6969 9.32765 29.5313C9.53149 24.7577 10.3302 22.1607 10.9937 20.433C11.8757 18.1408 12.938 16.513 14.6481 14.7911C16.3582 13.0693 17.9899 12.0089 20.2762 11.1152C22.003 10.4409 24.5941 9.63927 29.3696 9.41191C34.5372 9.16691 36.0856 9.11791 49.1656 9.08949C62.2457 9.06107 63.798 9.11007 68.9675 9.33743C73.7411 9.54519 76.3391 10.3361 78.0649 11.0034C80.3551 11.8854 81.9849 12.9448 83.7067 14.6579C85.4286 16.3709 86.4899 17.9967 87.3837 20.288C88.0589 22.0098 88.8605 24.6 89.0859 29.3784C89.3319 34.546 89.3878 36.0954 89.4113 49.1744C89.4348 62.2535 89.3888 63.8068 89.1624 68.9704C88.9536 73.7479 88.1618 76.343 87.4964 78.0737C86.6144 80.362 85.5511 81.9937 83.84 83.7145C82.1289 85.4354 80.4992 86.4958 78.2119 87.3895C76.4871 88.0628 73.893 88.8664 69.1214 89.0938C63.9538 89.3368 62.4054 89.3878 49.3205 89.4162C36.2355 89.4446 34.692 89.3917 29.5245 89.1682M69.4693 23.0565C69.4712 24.2195 69.818 25.3558 70.4658 26.3218C71.1136 27.2877 72.0333 28.0398 73.1086 28.483C74.1839 28.9262 75.3664 29.0405 76.5067 28.8116C77.647 28.5827 78.6938 28.0207 79.5147 27.1968C80.3355 26.3729 80.8937 25.3241 81.1184 24.183C81.3432 23.0418 81.2245 21.8597 80.7774 20.7861C80.3302 19.7124 79.5747 18.7955 78.6064 18.1512C77.6381 17.507 76.5005 17.1643 75.3375 17.1667C73.7784 17.1698 72.2843 17.792 71.1839 18.8965C70.0834 20.001 69.4667 21.4973 69.4693 23.0565ZM24.0855 49.294C24.1129 63.1904 35.3986 74.43 49.2921 74.4036C63.1855 74.3771 74.433 63.0924 74.4065 49.196C74.38 35.2996 63.0914 24.057 49.196 24.0845C35.3006 24.1119 24.059 35.3996 24.0855 49.294ZM32.9114 49.2764C32.905 46.0459 33.8567 42.886 35.6461 40.1964C37.4356 37.5068 39.9824 35.4083 42.9645 34.1661C45.9466 32.924 49.2301 32.594 52.3998 33.218C55.5695 33.8419 58.4829 35.3918 60.7717 37.6716C63.0605 39.9513 64.6219 42.8586 65.2585 46.0258C65.895 49.1929 65.578 52.4777 64.3477 55.4648C63.1173 58.4518 61.0289 61.0069 58.3464 62.807C55.6639 64.6071 52.5078 65.5713 49.2774 65.5777C47.1323 65.5822 45.0074 65.1641 43.024 64.3473C41.0405 63.5304 39.2374 62.3309 37.7177 60.8171C36.1979 59.3033 34.9912 57.505 34.1665 55.5248C33.3418 53.5446 32.9153 51.4214 32.9114 49.2764Z" fill="white"/>
</svg>
